<?xml version="1.0" encoding="utf-8"?>
<!-- Generator: Adobe Illustrator 23.0.1, SVG Export Plug-In . SVG Version: 6.00 Build 0)  -->
<svg version="1.1" id="Layer_1" xmlns="http://www.w3.org/2000/svg" xmlns:xlink="http://www.w3.org/1999/xlink" x="0px" y="0px"
	 viewBox="0 0 1920 1000" style="enable-background:new 0 0 1920 1000;" xml:space="preserve">
<style type="text/css">
	.st0{clip-path:url(#SVGID_2_);fill:url(#SVGID_3_);}
	.st1{clip-path:url(#SVGID_5_);fill:url(#SVGID_6_);}
</style>
<g>
	<defs>
		<rect id="SVGID_1_" x="-82.2" y="543.8" width="2002.3" height="472.9"/>
	</defs>
	<clipPath id="SVGID_2_">
		<use xlink:href="#SVGID_1_"  style="overflow:visible;"/>
	</clipPath>
	
		<linearGradient id="SVGID_3_" gradientUnits="userSpaceOnUse" x1="570.2" y1="226.3443" x2="1963.1886" y2="226.3443" gradientTransform="matrix(1 0 0 -1 0 1002)">
		<stop  offset="0" style="stop-color:#5CB295"/>
		<stop  offset="1" style="stop-color:#5CDB95"/>
	</linearGradient>
	<path class="st0" d="M570.2,870.9c129.2-102.3,299.6-137,464.1-145.7c164.6-8.7,330.3,5.4,494-13.8
		c126.6-14.8,250.8-49.6,366.6-102.6c16.8-7.7,37.2-15.6,52.8-5.6c17,10.9,16.7,35.5,14.3,55.6c-8,68.4-19.7,144-73.3,187.2
		c-32.6,26.2-75.2,35.6-116.3,43.5c-284.4,54.4-575.4,73.9-864.6,57.9C791.7,940.8,672,927.5,570.2,870.9L570.2,870.9z"/>
</g>
<g>
	<defs>
		<rect id="SVGID_4_" x="-82.2" y="543.8" width="2002.3" height="472.9"/>
	</defs>
	<clipPath id="SVGID_5_">
		<use xlink:href="#SVGID_4_"  style="overflow:visible;"/>
	</clipPath>
	
		<linearGradient id="SVGID_6_" gradientUnits="userSpaceOnUse" x1="87.3001" y1="106.6644" x2="2035.2766" y2="106.6644" gradientTransform="matrix(1 0 0 -1 0 1002)">
		<stop  offset="0" style="stop-color:#009C5B"/>
		<stop  offset="1" style="stop-color:#176469"/>
	</linearGradient>
	<path class="st1" d="M1245.5,845.7c212.2-21.9,411.9-126,625.1-129.2c37.4-0.6,77.2,2.8,107.4,25c48.3,35.5,54.7,103.9,56.8,163.8
		c1.5,42.5,1.2,90-28.1,120.9c-28.6,30.1-74.7,33.6-116.2,34.3c-309.3,5.4-618.3-33.3-927.5-24.6c-287.6,8.1-599.8,81.8-875.7,0.4
		C162,924.8,310.5,835.6,443,813.5s268-7.2,401.2,9.9C977.4,840.4,1111.9,859.5,1245.5,845.7L1245.5,845.7z"/>
</g>
</svg>
