<?xml version="1.0" encoding="utf-8"?>
<!-- Generator: Adobe Illustrator 23.0.1, SVG Export Plug-In . SVG Version: 6.00 Build 0)  -->
<svg version="1.1" id="Layer_1" xmlns="http://www.w3.org/2000/svg" xmlns:xlink="http://www.w3.org/1999/xlink" x="0px" y="0px"
	 viewBox="0 0 1920 1000" style="enable-background:new 0 0 1920 1000;" xml:space="preserve">
<style type="text/css">
	.st0{clip-path:url(#SVGID_2_);fill:url(#SVGID_3_);}
	.st1{clip-path:url(#SVGID_5_);fill:url(#SVGID_6_);}
</style>
<g>
	<g>
		<defs>
			<polygon id="SVGID_1_" points="1.8,537.8 1920,122.1 1920.1,1004.7 1.8,999.7 			"/>
		</defs>
		<clipPath id="SVGID_2_">
			<use xlink:href="#SVGID_1_"  style="overflow:visible;"/>
		</clipPath>
		
			<linearGradient id="SVGID_3_" gradientUnits="userSpaceOnUse" x1="353" y1="629.8126" x2="1967.5869" y2="629.8126" gradientTransform="matrix(1 0 0 1 0 -78)">
			<stop  offset="0" style="stop-color:#5CB295"/>
			<stop  offset="1" style="stop-color:#5CDB95"/>
		</linearGradient>
		<path class="st0" d="M353,850c129.2-102.3,342.5-232.2,607-237.8c458.8-9.8,369.5-58.7,565.5-233.4
			c176-156.9,324.1-183.7,341.1-187.7c56.9-13.4,76.7-30.3,92.3-20.3c17,10.9,4,45.4,1.6,65.5c-8,68.4-18.3,549.5-71.9,592.7
			c-32.6,26.2-75.2,35.6-116.3,43.5c-284.4,54.4-575.4,73.9-864.6,57.9c-116.1-6.6-235.8-19.9-337.6-76.5L353,850z"/>
	</g>
</g>
<g>
	<g>
		<defs>
			<polygon id="SVGID_4_" points="1.8,537.8 1919.7,121.3 1920.1,1004.7 1.8,999.7 			"/>
		</defs>
		<clipPath id="SVGID_5_">
			<use xlink:href="#SVGID_4_"  style="overflow:visible;"/>
		</clipPath>
		
			<linearGradient id="SVGID_6_" gradientUnits="userSpaceOnUse" x1="-11.1525" y1="954.6552" x2="2035.124" y2="954.6552" gradientTransform="matrix(1 0 0 1 0 -78)">
			<stop  offset="0" style="stop-color:#00AA61"/>
			<stop  offset="1" style="stop-color:#176469"/>
		</linearGradient>
		<path class="st1" d="M1245.3,828.5c212.2-21.9,411.9-126,625.1-129.2c37.4-0.6,77.2,2.8,107.4,25c48.3,35.5,54.7,103.9,56.8,163.8
			c1.5,42.5,1.2,74-28.1,104.9c-28.6,30.1-74.7,49.6-116.2,50.3c-309.3,5.4-618.3-33.3-927.5-24.6c-287.6,8.1-698.1,77.5-974-3.9
			c74.7-111.5,321.5-196.4,454-218.5s268-7.2,401.2,9.9C977.2,823.2,1111.7,842.3,1245.3,828.5L1245.3,828.5z"/>
	</g>
</g>
</svg>
